<svg height="558" width="720" xmlns="http://www.w3.org/2000/svg">
<rect height="558" fill="#555" width="720"></rect>
<text fill="#7f7" font-family="Courier New" font-size="12" xml:space="preserve">
<tspan x="10" y="26">6 megabytes installed</tspan>
<tspan x="10" y="42"></tspan>
<tspan x="10" y="58">node_modules</tspan>
<tspan x="10" y="74">└─┬ disc@1.3.2 </tspan>
<tspan x="10" y="90">  ├─┬ bl@0.7.0 </tspan>
<tspan x="10" y="106">  │ └─┬ readable-stream@1.0.34 </tspan>
<tspan x="10" y="122">  │   ├── core-util-is@1.0.2 </tspan>
<tspan x="10" y="138">  │   ├── inherits@2.0.3 </tspan>
<tspan x="10" y="154">  │   ├── isarray@0.0.1 </tspan>
<tspan x="10" y="170">  │   └── string_decoder@0.10.31 </tspan>
<tspan x="10" y="186">  ├─┬ browser-unpack@0.2.3 </tspan>
<tspan x="10" y="202">  │ ├─┬ concat-stream@1.2.1 </tspan>
<tspan x="10" y="218">  │ │ └─┬ bops@0.0.6 </tspan>
<tspan x="10" y="234">  │ │   ├── base64-js@0.0.2 </tspan>
<tspan x="10" y="250">  │ │   └── to-utf8@0.0.1 </tspan>
<tspan x="10" y="266">  │ ├── esprima-fb@3001.1.0-dev-harmony-fb </tspan>
<tspan x="10" y="282">  │ └── minimist@0.0.5 </tspan>
<tspan x="10" y="298">  ├── builtins@0.0.3 </tspan>
<tspan x="10" y="314">  ├── commondir@0.0.1 </tspan>
<tspan x="10" y="330">  ├── d3@3.5.17 </tspan>
<tspan x="10" y="346">  ├── duplexer@0.1.1 </tspan>
<tspan x="10" y="362">  ├─┬ file-tree@1.0.0 </tspan>
<tspan x="10" y="378">  │ ├── async-reduce@0.0.1 </tspan>
<tspan x="10" y="394">  │ └── flat@1.0.0 </tspan>
<tspan x="10" y="410">  ├── flatten@0.0.1 </tspan>
<tspan x="10" y="426">  ├── map-async@0.1.1 </tspan>
<tspan x="10" y="442">  ├── opener@1.4.3 </tspan>
<tspan x="10" y="458">  ├─┬ optimist@0.6.1 </tspan>
<tspan x="10" y="474">  │ └── wordwrap@0.0.3 </tspan>
<tspan x="10" y="490">  ├── plucker@0.0.0 </tspan>
<tspan x="10" y="506">  ├── UNMET PEER DEPENDENCY stream-browserify@*</tspan>
<tspan x="10" y="522">  ├── through@2.3.8 </tspan>
<tspan x="10" y="538">  └── uniq@1.0.1</tspan>
</text>
</svg>
